<svg xmlns="http://www.w3.org/2000/svg" width="320" height="180" viewBox="0 0 320 180">
  <defs>
    <linearGradient id="bg" x1="0" y1="0" x2="1" y2="1">
      <stop offset="0" stop-color="#0e4d6e"/>
      <stop offset="1" stop-color="#071426"/>
    </linearGradient>
  </defs>
  <rect width="320" height="180" rx="14" fill="url(#bg)"/>
  <g stroke="#00e5ff" stroke-opacity=".08" stroke-width="1.5">
    <path d="M0 45h320M0 90h320M0 135h320M80 0v180M160 0v180M240 0v180"/>
  </g>
  <g>
    <rect x="52" y="24" width="28" height="28" rx="5" fill="#00e5ff"/>
    <rect x="84" y="24" width="28" height="28" rx="5" fill="#ffd166"/>
    <rect x="180" y="52" width="28" height="28" rx="5" fill="#ff5470"/>
    <rect x="212" y="52" width="28" height="28" rx="5" fill="#a78bfa"/>
    <rect x="116" y="96" width="28" height="28" rx="5" fill="#17c964"/>
    <rect x="148" y="96" width="28" height="28" rx="5" fill="#ff9f43"/>
    <rect x="148" y="128" width="28" height="28" rx="5" fill="#4285F4"/>
  </g>
  <path d="M272 18l16 9v18l-16 9-16-9V27z" fill="none" stroke="#fff" stroke-opacity=".14" stroke-width="3"/>
  <text x="18" y="168" font-family="'Segoe UI', Arial, sans-serif" font-size="23" font-weight="800" fill="#fff">Tetris</text>
  <text x="302" y="168" text-anchor="end" font-family="Consolas, monospace" font-size="12" font-weight="700" fill="#00e5ff">0xB0</text>
</svg>
